<?xml version="1.0" encoding="utf-8" standalone="no"?>
<!DOCTYPE svg PUBLIC "-//W3C//DTD SVG 1.1//EN"
  "http://www.w3.org/Graphics/SVG/1.1/DTD/svg11.dtd">
<svg xmlns:xlink="http://www.w3.org/1999/xlink" width="720pt" height="432pt" viewBox="0 0 720 432" xmlns="http://www.w3.org/2000/svg" version="1.1">
 <metadata>
  <rdf:RDF xmlns:dc="http://purl.org/dc/elements/1.1/" xmlns:cc="http://creativecommons.org/ns#" xmlns:rdf="http://www.w3.org/1999/02/22-rdf-syntax-ns#">
   <cc:Work>
    <dc:type rdf:resource="http://purl.org/dc/dcmitype/StillImage"/>
    <dc:date>2023-09-27T22:24:08.087931</dc:date>
    <dc:format>image/svg+xml</dc:format>
    <dc:creator>
     <cc:Agent>
      <dc:title>Matplotlib v3.7.3, https://matplotlib.org/</dc:title>
     </cc:Agent>
    </dc:creator>
   </cc:Work>
  </rdf:RDF>
 </metadata>
 <defs>
  <style type="text/css">*{stroke-linejoin: round; stroke-linecap: butt}</style>
 </defs>
 <g id="figure_1">
  <g id="patch_1">
   <path d="M 0 432 
L 720 432 
L 720 0 
L 0 0 
z
" style="fill: #ffffff"/>
  </g>
  <g id="axes_1">
   <g id="patch_2">
    <path d="M 90 384.48 
L 648 384.48 
L 648 51.84 
L 90 51.84 
z
" style="fill: #ffffff"/>
   </g>
   <g id="matplotlib.axis_1">
    <g id="xtick_1">
     <g id="line2d_1">
      <path d="M 158.6436 384.48 
L 158.6436 51.84 
" clip-path="url(#p7806a97725)" style="fill: none; stroke: #b0b0b0; stroke-width: 0.8; stroke-linecap: square"/>
     </g>
     <g id="line2d_2">
      <defs>
       <path id="m2934d37c10" d="M 0 0 
L 0 3.5 
" style="stroke: #000000; stroke-width: 0.8"/>
      </defs>
      <g>
       <use xlink:href="#m2934d37c10" x="158.6436" y="384.48" style="stroke: #000000; stroke-width: 0.8"/>
      </g>
     </g>
     <g id="text_1">
      <!-- 0 -->
      <g transform="translate(155.46235 399.078438) scale(0.1 -0.1)">
       <defs>
        <path id="DejaVuSans-30" d="M 2034 4250 
Q 1547 4250 1301 3770 
Q 1056 3291 1056 2328 
Q 1056 1369 1301 889 
Q 1547 409 2034 409 
Q 2525 409 2770 889 
Q 3016 1369 3016 2328 
Q 3016 3291 2770 3770 
Q 2525 4250 2034 4250 
z
M 2034 4750 
Q 2819 4750 3233 4129 
Q 3647 3509 3647 2328 
Q 3647 1150 3233 529 
Q 2819 -91 2034 -91 
Q 1250 -91 836 529 
Q 422 1150 422 2328 
Q 422 3509 836 4129 
Q 1250 4750 2034 4750 
z
" transform="scale(0.015625)"/>
       </defs>
       <use xlink:href="#DejaVuSans-30"/>
      </g>
     </g>
    </g>
    <g id="xtick_2">
     <g id="line2d_3">
      <path d="M 258.920008 384.48 
L 258.920008 51.84 
" clip-path="url(#p7806a97725)" style="fill: none; stroke: #b0b0b0; stroke-width: 0.8; stroke-linecap: square"/>
     </g>
     <g id="line2d_4">
      <g>
       <use xlink:href="#m2934d37c10" x="258.920008" y="384.48" style="stroke: #000000; stroke-width: 0.8"/>
      </g>
     </g>
     <g id="text_2">
      <!-- 100 -->
      <g transform="translate(249.376258 399.078438) scale(0.1 -0.1)">
       <defs>
        <path id="DejaVuSans-31" d="M 794 531 
L 1825 531 
L 1825 4091 
L 703 3866 
L 703 4441 
L 1819 4666 
L 2450 4666 
L 2450 531 
L 3481 531 
L 3481 0 
L 794 0 
L 794 531 
z
" transform="scale(0.015625)"/>
       </defs>
       <use xlink:href="#DejaVuSans-31"/>
       <use xlink:href="#DejaVuSans-30" x="63.623047"/>
       <use xlink:href="#DejaVuSans-30" x="127.246094"/>
      </g>
     </g>
    </g>
    <g id="xtick_3">
     <g id="line2d_5">
      <path d="M 359.196416 384.48 
L 359.196416 51.84 
" clip-path="url(#p7806a97725)" style="fill: none; stroke: #b0b0b0; stroke-width: 0.8; stroke-linecap: square"/>
     </g>
     <g id="line2d_6">
      <g>
       <use xlink:href="#m2934d37c10" x="359.196416" y="384.48" style="stroke: #000000; stroke-width: 0.8"/>
      </g>
     </g>
     <g id="text_3">
      <!-- 200 -->
      <g transform="translate(349.652666 399.078438) scale(0.1 -0.1)">
       <defs>
        <path id="DejaVuSans-32" d="M 1228 531 
L 3431 531 
L 3431 0 
L 469 0 
L 469 531 
Q 828 903 1448 1529 
Q 2069 2156 2228 2338 
Q 2531 2678 2651 2914 
Q 2772 3150 2772 3378 
Q 2772 3750 2511 3984 
Q 2250 4219 1831 4219 
Q 1534 4219 1204 4116 
Q 875 4013 500 3803 
L 500 4441 
Q 881 4594 1212 4672 
Q 1544 4750 1819 4750 
Q 2544 4750 2975 4387 
Q 3406 4025 3406 3419 
Q 3406 3131 3298 2873 
Q 3191 2616 2906 2266 
Q 2828 2175 2409 1742 
Q 1991 1309 1228 531 
z
" transform="scale(0.015625)"/>
       </defs>
       <use xlink:href="#DejaVuSans-32"/>
       <use xlink:href="#DejaVuSans-30" x="63.623047"/>
       <use xlink:href="#DejaVuSans-30" x="127.246094"/>
      </g>
     </g>
    </g>
    <g id="xtick_4">
     <g id="line2d_7">
      <path d="M 459.472823 384.48 
L 459.472823 51.84 
" clip-path="url(#p7806a97725)" style="fill: none; stroke: #b0b0b0; stroke-width: 0.8; stroke-linecap: square"/>
     </g>
     <g id="line2d_8">
      <g>
       <use xlink:href="#m2934d37c10" x="459.472823" y="384.48" style="stroke: #000000; stroke-width: 0.8"/>
      </g>
     </g>
     <g id="text_4">
      <!-- 300 -->
      <g transform="translate(449.929073 399.078438) scale(0.1 -0.1)">
       <defs>
        <path id="DejaVuSans-33" d="M 2597 2516 
Q 3050 2419 3304 2112 
Q 3559 1806 3559 1356 
Q 3559 666 3084 287 
Q 2609 -91 1734 -91 
Q 1441 -91 1130 -33 
Q 819 25 488 141 
L 488 750 
Q 750 597 1062 519 
Q 1375 441 1716 441 
Q 2309 441 2620 675 
Q 2931 909 2931 1356 
Q 2931 1769 2642 2001 
Q 2353 2234 1838 2234 
L 1294 2234 
L 1294 2753 
L 1863 2753 
Q 2328 2753 2575 2939 
Q 2822 3125 2822 3475 
Q 2822 3834 2567 4026 
Q 2313 4219 1838 4219 
Q 1578 4219 1281 4162 
Q 984 4106 628 3988 
L 628 4550 
Q 988 4650 1302 4700 
Q 1616 4750 1894 4750 
Q 2613 4750 3031 4423 
Q 3450 4097 3450 3541 
Q 3450 3153 3228 2886 
Q 3006 2619 2597 2516 
z
" transform="scale(0.015625)"/>
       </defs>
       <use xlink:href="#DejaVuSans-33"/>
       <use xlink:href="#DejaVuSans-30" x="63.623047"/>
       <use xlink:href="#DejaVuSans-30" x="127.246094"/>
      </g>
     </g>
    </g>
    <g id="xtick_5">
     <g id="line2d_9">
      <path d="M 559.749231 384.48 
L 559.749231 51.84 
" clip-path="url(#p7806a97725)" style="fill: none; stroke: #b0b0b0; stroke-width: 0.8; stroke-linecap: square"/>
     </g>
     <g id="line2d_10">
      <g>
       <use xlink:href="#m2934d37c10" x="559.749231" y="384.48" style="stroke: #000000; stroke-width: 0.8"/>
      </g>
     </g>
     <g id="text_5">
      <!-- 400 -->
      <g transform="translate(550.205481 399.078438) scale(0.1 -0.1)">
       <defs>
        <path id="DejaVuSans-34" d="M 2419 4116 
L 825 1625 
L 2419 1625 
L 2419 4116 
z
M 2253 4666 
L 3047 4666 
L 3047 1625 
L 3713 1625 
L 3713 1100 
L 3047 1100 
L 3047 0 
L 2419 0 
L 2419 1100 
L 313 1100 
L 313 1709 
L 2253 4666 
z
" transform="scale(0.015625)"/>
       </defs>
       <use xlink:href="#DejaVuSans-34"/>
       <use xlink:href="#DejaVuSans-30" x="63.623047"/>
       <use xlink:href="#DejaVuSans-30" x="127.246094"/>
      </g>
     </g>
    </g>
    <g id="text_6">
     <!-- Value -->
     <g transform="translate(355.26875 412.756563) scale(0.1 -0.1)">
      <defs>
       <path id="DejaVuSans-56" d="M 1831 0 
L 50 4666 
L 709 4666 
L 2188 738 
L 3669 4666 
L 4325 4666 
L 2547 0 
L 1831 0 
z
" transform="scale(0.015625)"/>
       <path id="DejaVuSans-61" d="M 2194 1759 
Q 1497 1759 1228 1600 
Q 959 1441 959 1056 
Q 959 750 1161 570 
Q 1363 391 1709 391 
Q 2188 391 2477 730 
Q 2766 1069 2766 1631 
L 2766 1759 
L 2194 1759 
z
M 3341 1997 
L 3341 0 
L 2766 0 
L 2766 531 
Q 2569 213 2275 61 
Q 1981 -91 1556 -91 
Q 1019 -91 701 211 
Q 384 513 384 1019 
Q 384 1609 779 1909 
Q 1175 2209 1959 2209 
L 2766 2209 
L 2766 2266 
Q 2766 2663 2505 2880 
Q 2244 3097 1772 3097 
Q 1472 3097 1187 3025 
Q 903 2953 641 2809 
L 641 3341 
Q 956 3463 1253 3523 
Q 1550 3584 1831 3584 
Q 2591 3584 2966 3190 
Q 3341 2797 3341 1997 
z
" transform="scale(0.015625)"/>
       <path id="DejaVuSans-6c" d="M 603 4863 
L 1178 4863 
L 1178 0 
L 603 0 
L 603 4863 
z
" transform="scale(0.015625)"/>
       <path id="DejaVuSans-75" d="M 544 1381 
L 544 3500 
L 1119 3500 
L 1119 1403 
Q 1119 906 1312 657 
Q 1506 409 1894 409 
Q 2359 409 2629 706 
Q 2900 1003 2900 1516 
L 2900 3500 
L 3475 3500 
L 3475 0 
L 2900 0 
L 2900 538 
Q 2691 219 2414 64 
Q 2138 -91 1772 -91 
Q 1169 -91 856 284 
Q 544 659 544 1381 
z
M 1991 3584 
L 1991 3584 
z
" transform="scale(0.015625)"/>
       <path id="DejaVuSans-65" d="M 3597 1894 
L 3597 1613 
L 953 1613 
Q 991 1019 1311 708 
Q 1631 397 2203 397 
Q 2534 397 2845 478 
Q 3156 559 3463 722 
L 3463 178 
Q 3153 47 2828 -22 
Q 2503 -91 2169 -91 
Q 1331 -91 842 396 
Q 353 884 353 1716 
Q 353 2575 817 3079 
Q 1281 3584 2069 3584 
Q 2775 3584 3186 3129 
Q 3597 2675 3597 1894 
z
M 3022 2063 
Q 3016 2534 2758 2815 
Q 2500 3097 2075 3097 
Q 1594 3097 1305 2825 
Q 1016 2553 972 2059 
L 3022 2063 
z
" transform="scale(0.015625)"/>
      </defs>
      <use xlink:href="#DejaVuSans-56"/>
      <use xlink:href="#DejaVuSans-61" x="60.658203"/>
      <use xlink:href="#DejaVuSans-6c" x="121.9375"/>
      <use xlink:href="#DejaVuSans-75" x="149.720703"/>
      <use xlink:href="#DejaVuSans-65" x="213.099609"/>
     </g>
    </g>
   </g>
   <g id="matplotlib.axis_2">
    <g id="ytick_1">
     <g id="line2d_11">
      <path d="M 90 384.48 
L 648 384.48 
" clip-path="url(#p7806a97725)" style="fill: none; stroke: #b0b0b0; stroke-width: 0.8; stroke-linecap: square"/>
     </g>
     <g id="line2d_12">
      <defs>
       <path id="m221ab0a687" d="M 0 0 
L -3.5 0 
" style="stroke: #000000; stroke-width: 0.8"/>
      </defs>
      <g>
       <use xlink:href="#m221ab0a687" x="90" y="384.48" style="stroke: #000000; stroke-width: 0.8"/>
      </g>
     </g>
     <g id="text_7">
      <!-- 0.00 -->
      <g transform="translate(60.734375 388.279219) scale(0.1 -0.1)">
       <defs>
        <path id="DejaVuSans-2e" d="M 684 794 
L 1344 794 
L 1344 0 
L 684 0 
L 684 794 
z
" transform="scale(0.015625)"/>
       </defs>
       <use xlink:href="#DejaVuSans-30"/>
       <use xlink:href="#DejaVuSans-2e" x="63.623047"/>
       <use xlink:href="#DejaVuSans-30" x="95.410156"/>
       <use xlink:href="#DejaVuSans-30" x="159.033203"/>
      </g>
     </g>
    </g>
    <g id="ytick_2">
     <g id="line2d_13">
      <path d="M 90 343.840573 
L 648 343.840573 
" clip-path="url(#p7806a97725)" style="fill: none; stroke: #b0b0b0; stroke-width: 0.8; stroke-linecap: square"/>
     </g>
     <g id="line2d_14">
      <g>
       <use xlink:href="#m221ab0a687" x="90" y="343.840573" style="stroke: #000000; stroke-width: 0.8"/>
      </g>
     </g>
     <g id="text_8">
      <!-- 0.01 -->
      <g transform="translate(60.734375 347.639792) scale(0.1 -0.1)">
       <use xlink:href="#DejaVuSans-30"/>
       <use xlink:href="#DejaVuSans-2e" x="63.623047"/>
       <use xlink:href="#DejaVuSans-30" x="95.410156"/>
       <use xlink:href="#DejaVuSans-31" x="159.033203"/>
      </g>
     </g>
    </g>
    <g id="ytick_3">
     <g id="line2d_15">
      <path d="M 90 303.201146 
L 648 303.201146 
" clip-path="url(#p7806a97725)" style="fill: none; stroke: #b0b0b0; stroke-width: 0.8; stroke-linecap: square"/>
     </g>
     <g id="line2d_16">
      <g>
       <use xlink:href="#m221ab0a687" x="90" y="303.201146" style="stroke: #000000; stroke-width: 0.8"/>
      </g>
     </g>
     <g id="text_9">
      <!-- 0.02 -->
      <g transform="translate(60.734375 307.000364) scale(0.1 -0.1)">
       <use xlink:href="#DejaVuSans-30"/>
       <use xlink:href="#DejaVuSans-2e" x="63.623047"/>
       <use xlink:href="#DejaVuSans-30" x="95.410156"/>
       <use xlink:href="#DejaVuSans-32" x="159.033203"/>
      </g>
     </g>
    </g>
    <g id="ytick_4">
     <g id="line2d_17">
      <path d="M 90 262.561718 
L 648 262.561718 
" clip-path="url(#p7806a97725)" style="fill: none; stroke: #b0b0b0; stroke-width: 0.8; stroke-linecap: square"/>
     </g>
     <g id="line2d_18">
      <g>
       <use xlink:href="#m221ab0a687" x="90" y="262.561718" style="stroke: #000000; stroke-width: 0.8"/>
      </g>
     </g>
     <g id="text_10">
      <!-- 0.03 -->
      <g transform="translate(60.734375 266.360937) scale(0.1 -0.1)">
       <use xlink:href="#DejaVuSans-30"/>
       <use xlink:href="#DejaVuSans-2e" x="63.623047"/>
       <use xlink:href="#DejaVuSans-30" x="95.410156"/>
       <use xlink:href="#DejaVuSans-33" x="159.033203"/>
      </g>
     </g>
    </g>
    <g id="ytick_5">
     <g id="line2d_19">
      <path d="M 90 221.922291 
L 648 221.922291 
" clip-path="url(#p7806a97725)" style="fill: none; stroke: #b0b0b0; stroke-width: 0.8; stroke-linecap: square"/>
     </g>
     <g id="line2d_20">
      <g>
       <use xlink:href="#m221ab0a687" x="90" y="221.922291" style="stroke: #000000; stroke-width: 0.8"/>
      </g>
     </g>
     <g id="text_11">
      <!-- 0.04 -->
      <g transform="translate(60.734375 225.72151) scale(0.1 -0.1)">
       <use xlink:href="#DejaVuSans-30"/>
       <use xlink:href="#DejaVuSans-2e" x="63.623047"/>
       <use xlink:href="#DejaVuSans-30" x="95.410156"/>
       <use xlink:href="#DejaVuSans-34" x="159.033203"/>
      </g>
     </g>
    </g>
    <g id="ytick_6">
     <g id="line2d_21">
      <path d="M 90 181.282864 
L 648 181.282864 
" clip-path="url(#p7806a97725)" style="fill: none; stroke: #b0b0b0; stroke-width: 0.8; stroke-linecap: square"/>
     </g>
     <g id="line2d_22">
      <g>
       <use xlink:href="#m221ab0a687" x="90" y="181.282864" style="stroke: #000000; stroke-width: 0.8"/>
      </g>
     </g>
     <g id="text_12">
      <!-- 0.05 -->
      <g transform="translate(60.734375 185.082083) scale(0.1 -0.1)">
       <defs>
        <path id="DejaVuSans-35" d="M 691 4666 
L 3169 4666 
L 3169 4134 
L 1269 4134 
L 1269 2991 
Q 1406 3038 1543 3061 
Q 1681 3084 1819 3084 
Q 2600 3084 3056 2656 
Q 3513 2228 3513 1497 
Q 3513 744 3044 326 
Q 2575 -91 1722 -91 
Q 1428 -91 1123 -41 
Q 819 9 494 109 
L 494 744 
Q 775 591 1075 516 
Q 1375 441 1709 441 
Q 2250 441 2565 725 
Q 2881 1009 2881 1497 
Q 2881 1984 2565 2268 
Q 2250 2553 1709 2553 
Q 1456 2553 1204 2497 
Q 953 2441 691 2322 
L 691 4666 
z
" transform="scale(0.015625)"/>
       </defs>
       <use xlink:href="#DejaVuSans-30"/>
       <use xlink:href="#DejaVuSans-2e" x="63.623047"/>
       <use xlink:href="#DejaVuSans-30" x="95.410156"/>
       <use xlink:href="#DejaVuSans-35" x="159.033203"/>
      </g>
     </g>
    </g>
    <g id="ytick_7">
     <g id="line2d_23">
      <path d="M 90 140.643437 
L 648 140.643437 
" clip-path="url(#p7806a97725)" style="fill: none; stroke: #b0b0b0; stroke-width: 0.8; stroke-linecap: square"/>
     </g>
     <g id="line2d_24">
      <g>
       <use xlink:href="#m221ab0a687" x="90" y="140.643437" style="stroke: #000000; stroke-width: 0.8"/>
      </g>
     </g>
     <g id="text_13">
      <!-- 0.06 -->
      <g transform="translate(60.734375 144.442656) scale(0.1 -0.1)">
       <defs>
        <path id="DejaVuSans-36" d="M 2113 2584 
Q 1688 2584 1439 2293 
Q 1191 2003 1191 1497 
Q 1191 994 1439 701 
Q 1688 409 2113 409 
Q 2538 409 2786 701 
Q 3034 994 3034 1497 
Q 3034 2003 2786 2293 
Q 2538 2584 2113 2584 
z
M 3366 4563 
L 3366 3988 
Q 3128 4100 2886 4159 
Q 2644 4219 2406 4219 
Q 1781 4219 1451 3797 
Q 1122 3375 1075 2522 
Q 1259 2794 1537 2939 
Q 1816 3084 2150 3084 
Q 2853 3084 3261 2657 
Q 3669 2231 3669 1497 
Q 3669 778 3244 343 
Q 2819 -91 2113 -91 
Q 1303 -91 875 529 
Q 447 1150 447 2328 
Q 447 3434 972 4092 
Q 1497 4750 2381 4750 
Q 2619 4750 2861 4703 
Q 3103 4656 3366 4563 
z
" transform="scale(0.015625)"/>
       </defs>
       <use xlink:href="#DejaVuSans-30"/>
       <use xlink:href="#DejaVuSans-2e" x="63.623047"/>
       <use xlink:href="#DejaVuSans-30" x="95.410156"/>
       <use xlink:href="#DejaVuSans-36" x="159.033203"/>
      </g>
     </g>
    </g>
    <g id="ytick_8">
     <g id="line2d_25">
      <path d="M 90 100.00401 
L 648 100.00401 
" clip-path="url(#p7806a97725)" style="fill: none; stroke: #b0b0b0; stroke-width: 0.8; stroke-linecap: square"/>
     </g>
     <g id="line2d_26">
      <g>
       <use xlink:href="#m221ab0a687" x="90" y="100.00401" style="stroke: #000000; stroke-width: 0.8"/>
      </g>
     </g>
     <g id="text_14">
      <!-- 0.07 -->
      <g transform="translate(60.734375 103.803228) scale(0.1 -0.1)">
       <defs>
        <path id="DejaVuSans-37" d="M 525 4666 
L 3525 4666 
L 3525 4397 
L 1831 0 
L 1172 0 
L 2766 4134 
L 525 4134 
L 525 4666 
z
" transform="scale(0.015625)"/>
       </defs>
       <use xlink:href="#DejaVuSans-30"/>
       <use xlink:href="#DejaVuSans-2e" x="63.623047"/>
       <use xlink:href="#DejaVuSans-30" x="95.410156"/>
       <use xlink:href="#DejaVuSans-37" x="159.033203"/>
      </g>
     </g>
    </g>
    <g id="ytick_9">
     <g id="line2d_27">
      <path d="M 90 59.364582 
L 648 59.364582 
" clip-path="url(#p7806a97725)" style="fill: none; stroke: #b0b0b0; stroke-width: 0.8; stroke-linecap: square"/>
     </g>
     <g id="line2d_28">
      <g>
       <use xlink:href="#m221ab0a687" x="90" y="59.364582" style="stroke: #000000; stroke-width: 0.8"/>
      </g>
     </g>
     <g id="text_15">
      <!-- 0.08 -->
      <g transform="translate(60.734375 63.163801) scale(0.1 -0.1)">
       <defs>
        <path id="DejaVuSans-38" d="M 2034 2216 
Q 1584 2216 1326 1975 
Q 1069 1734 1069 1313 
Q 1069 891 1326 650 
Q 1584 409 2034 409 
Q 2484 409 2743 651 
Q 3003 894 3003 1313 
Q 3003 1734 2745 1975 
Q 2488 2216 2034 2216 
z
M 1403 2484 
Q 997 2584 770 2862 
Q 544 3141 544 3541 
Q 544 4100 942 4425 
Q 1341 4750 2034 4750 
Q 2731 4750 3128 4425 
Q 3525 4100 3525 3541 
Q 3525 3141 3298 2862 
Q 3072 2584 2669 2484 
Q 3125 2378 3379 2068 
Q 3634 1759 3634 1313 
Q 3634 634 3220 271 
Q 2806 -91 2034 -91 
Q 1263 -91 848 271 
Q 434 634 434 1313 
Q 434 1759 690 2068 
Q 947 2378 1403 2484 
z
M 1172 3481 
Q 1172 3119 1398 2916 
Q 1625 2713 2034 2713 
Q 2441 2713 2670 2916 
Q 2900 3119 2900 3481 
Q 2900 3844 2670 4047 
Q 2441 4250 2034 4250 
Q 1625 4250 1398 4047 
Q 1172 3844 1172 3481 
z
" transform="scale(0.015625)"/>
       </defs>
       <use xlink:href="#DejaVuSans-30"/>
       <use xlink:href="#DejaVuSans-2e" x="63.623047"/>
       <use xlink:href="#DejaVuSans-30" x="95.410156"/>
       <use xlink:href="#DejaVuSans-38" x="159.033203"/>
      </g>
     </g>
    </g>
    <g id="text_16">
     <!-- Density -->
     <g transform="translate(54.654687 237.168594) rotate(-90) scale(0.1 -0.1)">
      <defs>
       <path id="DejaVuSans-44" d="M 1259 4147 
L 1259 519 
L 2022 519 
Q 2988 519 3436 956 
Q 3884 1394 3884 2338 
Q 3884 3275 3436 3711 
Q 2988 4147 2022 4147 
L 1259 4147 
z
M 628 4666 
L 1925 4666 
Q 3281 4666 3915 4102 
Q 4550 3538 4550 2338 
Q 4550 1131 3912 565 
Q 3275 0 1925 0 
L 628 0 
L 628 4666 
z
" transform="scale(0.015625)"/>
       <path id="DejaVuSans-6e" d="M 3513 2113 
L 3513 0 
L 2938 0 
L 2938 2094 
Q 2938 2591 2744 2837 
Q 2550 3084 2163 3084 
Q 1697 3084 1428 2787 
Q 1159 2491 1159 1978 
L 1159 0 
L 581 0 
L 581 3500 
L 1159 3500 
L 1159 2956 
Q 1366 3272 1645 3428 
Q 1925 3584 2291 3584 
Q 2894 3584 3203 3211 
Q 3513 2838 3513 2113 
z
" transform="scale(0.015625)"/>
       <path id="DejaVuSans-73" d="M 2834 3397 
L 2834 2853 
Q 2591 2978 2328 3040 
Q 2066 3103 1784 3103 
Q 1356 3103 1142 2972 
Q 928 2841 928 2578 
Q 928 2378 1081 2264 
Q 1234 2150 1697 2047 
L 1894 2003 
Q 2506 1872 2764 1633 
Q 3022 1394 3022 966 
Q 3022 478 2636 193 
Q 2250 -91 1575 -91 
Q 1294 -91 989 -36 
Q 684 19 347 128 
L 347 722 
Q 666 556 975 473 
Q 1284 391 1588 391 
Q 1994 391 2212 530 
Q 2431 669 2431 922 
Q 2431 1156 2273 1281 
Q 2116 1406 1581 1522 
L 1381 1569 
Q 847 1681 609 1914 
Q 372 2147 372 2553 
Q 372 3047 722 3315 
Q 1072 3584 1716 3584 
Q 2034 3584 2315 3537 
Q 2597 3491 2834 3397 
z
" transform="scale(0.015625)"/>
       <path id="DejaVuSans-69" d="M 603 3500 
L 1178 3500 
L 1178 0 
L 603 0 
L 603 3500 
z
M 603 4863 
L 1178 4863 
L 1178 4134 
L 603 4134 
L 603 4863 
z
" transform="scale(0.015625)"/>
       <path id="DejaVuSans-74" d="M 1172 4494 
L 1172 3500 
L 2356 3500 
L 2356 3053 
L 1172 3053 
L 1172 1153 
Q 1172 725 1289 603 
Q 1406 481 1766 481 
L 2356 481 
L 2356 0 
L 1766 0 
Q 1100 0 847 248 
Q 594 497 594 1153 
L 594 3053 
L 172 3053 
L 172 3500 
L 594 3500 
L 594 4494 
L 1172 4494 
z
" transform="scale(0.015625)"/>
       <path id="DejaVuSans-79" d="M 2059 -325 
Q 1816 -950 1584 -1140 
Q 1353 -1331 966 -1331 
L 506 -1331 
L 506 -850 
L 844 -850 
Q 1081 -850 1212 -737 
Q 1344 -625 1503 -206 
L 1606 56 
L 191 3500 
L 800 3500 
L 1894 763 
L 2988 3500 
L 3597 3500 
L 2059 -325 
z
" transform="scale(0.015625)"/>
      </defs>
      <use xlink:href="#DejaVuSans-44"/>
      <use xlink:href="#DejaVuSans-65" x="77.001953"/>
      <use xlink:href="#DejaVuSans-6e" x="138.525391"/>
      <use xlink:href="#DejaVuSans-73" x="201.904297"/>
      <use xlink:href="#DejaVuSans-69" x="254.003906"/>
      <use xlink:href="#DejaVuSans-74" x="281.787109"/>
      <use xlink:href="#DejaVuSans-79" x="320.996094"/>
     </g>
    </g>
   </g>
   <g id="line2d_29">
    <path d="M 140.60141 384.268167 
L 141.429597 383.899968 
L 142.050737 383.331261 
L 142.671878 382.340621 
L 143.293018 380.731852 
L 143.914159 378.29959 
L 144.535299 374.882448 
L 145.363486 368.735497 
L 146.605767 357.129724 
L 147.848048 345.962957 
L 148.676235 340.513224 
L 149.504422 336.674726 
L 150.33261 333.040413 
L 150.95375 329.074784 
L 151.574891 322.920953 
L 152.196031 313.832564 
L 152.817171 301.524144 
L 153.645359 280.61181 
L 155.301733 230.951503 
L 156.958107 184.180247 
L 158.407435 150.094039 
L 159.442669 130.066701 
L 160.270856 117.424364 
L 160.891997 110.289255 
L 161.513137 105.344686 
L 161.927231 103.351792 
L 162.341324 102.506272 
L 162.548371 102.556995 
L 162.755418 102.95311 
L 163.169512 104.887557 
L 163.583605 108.536441 
L 163.997699 114.122041 
L 164.618839 126.478224 
L 165.23998 143.663188 
L 166.068167 172.897237 
L 168.759775 274.434545 
L 169.587963 296.494015 
L 170.41615 313.521848 
L 171.451384 329.747395 
L 172.486618 342.405585 
L 173.728899 354.571464 
L 174.97118 364.368582 
L 176.006414 371.052252 
L 177.041648 376.353013 
L 177.869835 379.503441 
L 178.698022 381.696106 
L 179.319163 382.790978 
L 179.940303 383.512562 
L 180.561443 383.95778 
L 181.389631 384.271168 
L 181.803724 384.353261 
L 181.803724 384.353261 
" clip-path="url(#p7806a97725)" style="fill: none; stroke: #1f77b4; stroke-width: 2; stroke-linecap: square"/>
   </g>
   <g id="line2d_30">
    <path d="M 140.000871 384.402767 
L 141.155759 384.194308 
L 142.021924 383.808369 
L 142.599368 383.359711 
L 143.176812 382.693665 
L 143.754255 381.752695 
L 144.331699 380.485161 
L 145.197864 377.8923 
L 146.06403 374.424089 
L 146.930195 370.069035 
L 147.796361 364.734836 
L 148.662526 358.062298 
L 149.528692 349.280798 
L 150.394857 337.230611 
L 151.261023 320.620654 
L 152.127188 298.457472 
L 152.993354 270.459908 
L 154.148241 225.321867 
L 157.03546 105.895575 
L 157.901625 81.796503 
L 158.479069 71.923713 
L 158.767791 69.081435 
L 159.056512 67.68 
L 159.345234 67.715767 
L 159.633956 69.154593 
L 159.922678 71.932935 
L 160.500122 81.123877 
L 161.077565 94.322493 
L 162.232453 128.134704 
L 165.408393 226.559463 
L 167.140724 273.528711 
L 168.295611 300.091502 
L 169.450498 321.2252 
L 170.316664 333.475346 
L 171.182829 343.255129 
L 172.337717 353.773162 
L 173.492604 362.470072 
L 174.358769 367.819621 
L 175.224935 371.873861 
L 175.802379 373.776426 
L 176.379822 375.077101 
L 176.957266 375.887866 
L 177.53471 376.365974 
L 180.71065 378.073775 
L 181.288093 378.25263 
L 181.865537 378.260436 
L 182.731703 377.957108 
L 184.752755 376.916495 
L 185.618921 376.807114 
L 189.372305 377.022238 
L 189.949748 377.298363 
L 190.527192 377.781196 
L 191.393358 378.87567 
L 193.991854 382.746089 
L 194.85802 383.547133 
L 195.724185 384.033649 
L 196.879072 384.340939 
L 197.456516 384.408257 
L 197.456516 384.408257 
" clip-path="url(#p7806a97725)" style="fill: none; stroke: #ff7f0e; stroke-width: 2; stroke-linecap: square"/>
   </g>
   <g id="line2d_31">
    <path d="M 115.363636 384.466492 
L 128.109182 384.309688 
L 133.207401 384.077118 
L 138.305619 383.597418 
L 140.854728 383.208033 
L 143.403837 382.677307 
L 145.952947 381.966086 
L 148.502056 381.028978 
L 151.051165 379.815348 
L 153.600274 378.271478 
L 156.149383 376.344186 
L 158.698492 373.98605 
L 161.247602 371.16211 
L 163.796711 367.85753 
L 166.34582 364.085295 
L 168.894929 359.892607 
L 173.993148 350.623443 
L 179.091366 341.140236 
L 181.640475 336.755207 
L 184.189584 332.839566 
L 186.738693 329.53711 
L 189.287803 326.950831 
L 191.836912 325.134882 
L 194.386021 324.093326 
L 196.93513 323.785672 
L 199.484239 324.137799 
L 202.033349 325.055901 
L 204.582458 326.440616 
L 207.131567 328.198772 
L 209.680676 330.25101 
L 212.229785 332.534669 
L 217.328004 337.618436 
L 222.426222 343.175639 
L 235.171768 357.42353 
L 237.720877 360.032378 
L 240.269986 362.479277 
L 242.819095 364.739852 
L 245.368205 366.797722 
L 247.917314 368.645101 
L 250.466423 370.282789 
L 253.015532 371.71956 
L 255.564641 372.970963 
L 258.113751 374.057627 
L 263.211969 375.832366 
L 268.310187 377.232392 
L 273.408406 378.405443 
L 281.055733 379.891257 
L 286.153952 380.703651 
L 291.25217 381.35035 
L 298.899497 382.033381 
L 329.488808 384.047342 
L 337.136135 384.313359 
L 347.332572 384.448755 
L 375.372773 384.479972 
L 548.712197 384.382028 
L 561.457743 384.098305 
L 576.752398 383.750154 
L 584.399726 383.805135 
L 617.538145 384.458351 
L 622.636364 384.471845 
L 622.636364 384.471845 
" clip-path="url(#p7806a97725)" style="fill: none; stroke: #2ca02c; stroke-width: 2; stroke-linecap: square"/>
   </g>
   <g id="line2d_32">
    <path d="M 230.708002 384.407233 
L 232.674491 384.209459 
L 234.247682 383.822634 
L 235.427575 383.316494 
L 236.607468 382.581535 
L 238.180659 381.266497 
L 240.933743 378.775189 
L 242.113636 378.099504 
L 242.900231 377.89813 
L 243.686827 377.913316 
L 244.473422 378.127453 
L 245.653315 378.709932 
L 247.226506 379.531739 
L 248.013102 379.728561 
L 248.799697 379.640775 
L 249.586293 379.175557 
L 250.372888 378.262561 
L 251.159484 376.862845 
L 251.946079 374.976166 
L 253.125972 371.337439 
L 254.699163 365.49861 
L 257.452247 355.23168 
L 260.205331 345.555383 
L 261.385224 340.157893 
L 262.17182 335.662783 
L 263.351713 327.262164 
L 264.531606 316.757604 
L 265.711499 304.281235 
L 267.28469 285.14519 
L 272.397561 218.960587 
L 273.184156 211.468891 
L 273.970751 205.629584 
L 274.757347 201.681769 
L 275.150645 200.463211 
L 275.543942 199.757866 
L 275.93724 199.563437 
L 276.330538 199.870364 
L 276.723835 200.662468 
L 277.117133 201.917844 
L 277.903729 205.708862 
L 278.690324 210.99778 
L 279.870217 221.172816 
L 281.443408 237.738321 
L 283.409897 261.392971 
L 287.342874 309.530113 
L 288.916065 325.355648 
L 290.095958 335.163402 
L 291.275851 343.279308 
L 292.455744 349.982642 
L 293.635637 355.626536 
L 295.208828 362.049795 
L 296.782019 367.64601 
L 298.35521 372.552806 
L 299.928401 376.662526 
L 301.108294 379.124428 
L 302.288187 381.021571 
L 303.468081 382.384647 
L 304.647974 383.293366 
L 305.827867 383.853716 
L 307.00776 384.172668 
L 308.580951 384.374108 
L 308.974249 384.400567 
L 308.974249 384.400567 
" clip-path="url(#p7806a97725)" style="fill: none; stroke-dasharray: 7.4,3.2; stroke-dashoffset: 0; stroke: #d62728; stroke-width: 2"/>
   </g>
   <g id="line2d_33">
    <path d="M 248.626919 384.426479 
L 250.710812 384.210377 
L 252.100074 383.81004 
L 253.14202 383.260377 
L 254.183967 382.405118 
L 255.225913 381.167456 
L 256.267859 379.494451 
L 257.309806 377.373426 
L 258.699068 373.92604 
L 261.477591 366.024593 
L 263.561484 360.488748 
L 264.950746 356.720322 
L 265.992692 353.160351 
L 266.687323 350.108901 
L 267.381954 346.319561 
L 268.4239 338.992235 
L 269.465847 329.560388 
L 270.507793 318.172118 
L 272.24437 296.060577 
L 275.37021 254.900514 
L 276.759471 239.862525 
L 277.801418 230.90794 
L 278.843364 224.067193 
L 279.88531 219.13449 
L 280.579941 216.71706 
L 281.274572 214.858694 
L 281.969203 213.479661 
L 282.663834 212.564143 
L 283.01115 212.296677 
L 283.358465 212.174919 
L 283.70578 212.218688 
L 284.053096 212.451489 
L 284.400411 212.899496 
L 284.747727 213.590321 
L 285.442358 215.809735 
L 286.136989 219.305504 
L 286.83162 224.205515 
L 287.52625 230.532426 
L 288.568197 242.434535 
L 290.304774 266.234036 
L 292.041351 289.53244 
L 293.083298 301.05907 
L 294.125244 310.227064 
L 295.16719 317.362078 
L 296.556452 325.046149 
L 298.640345 336.373574 
L 300.724238 349.355698 
L 302.460815 359.815534 
L 303.502761 365.099958 
L 304.544708 369.401276 
L 305.586654 372.754874 
L 306.6286 375.333653 
L 307.670547 377.357208 
L 309.059809 379.502188 
L 310.449071 381.214323 
L 311.838332 382.533914 
L 312.880279 383.25789 
L 313.922225 383.766546 
L 315.311487 384.1713 
L 317.048064 384.391347 
L 317.742695 384.429495 
L 317.742695 384.429495 
" clip-path="url(#p7806a97725)" style="fill: none; stroke-dasharray: 7.4,3.2; stroke-dashoffset: 0; stroke: #9467bd; stroke-width: 2"/>
   </g>
   <g id="line2d_34">
    <path d="M 211.714318 384.458934 
L 216.204753 384.316143 
L 219.412206 383.986532 
L 221.978168 383.509667 
L 225.185621 382.676924 
L 229.034565 381.46695 
L 231.600528 380.463629 
L 233.525 379.491952 
L 235.449471 378.250048 
L 237.373943 376.670788 
L 238.656924 375.386561 
L 239.939906 373.869903 
L 241.222887 372.066328 
L 242.505868 369.915523 
L 243.788849 367.362841 
L 245.071831 364.372616 
L 246.354812 360.939491 
L 248.279284 355.038178 
L 250.845246 346.203405 
L 255.335681 330.597928 
L 258.543134 320.598623 
L 261.750587 310.549423 
L 263.675059 303.760529 
L 266.241021 293.662144 
L 268.806984 283.396366 
L 270.089965 278.845176 
L 271.372946 275.096866 
L 272.014437 273.618558 
L 272.655927 272.449472 
L 273.297418 271.618591 
L 273.938909 271.149858 
L 274.580399 271.061477 
L 275.22189 271.36539 
L 275.86338 272.066946 
L 276.504871 273.164779 
L 277.146362 274.650898 
L 277.787852 276.510955 
L 279.070834 281.266575 
L 280.353815 287.209907 
L 282.278287 297.718932 
L 287.410212 327.279518 
L 288.693193 333.436177 
L 289.976174 338.73894 
L 291.259155 343.168245 
L 292.542137 346.799214 
L 293.825118 349.779109 
L 295.108099 352.292357 
L 297.032571 355.579449 
L 304.730458 367.874537 
L 307.296421 371.462759 
L 309.220893 373.760667 
L 311.145365 375.667635 
L 313.069836 377.16882 
L 314.994308 378.296798 
L 316.91878 379.139032 
L 320.767724 380.458361 
L 325.899649 382.315644 
L 329.107102 383.358693 
L 331.673064 383.929329 
L 334.239027 384.253508 
L 337.44648 384.422509 
L 339.370952 384.458103 
L 339.370952 384.458103 
" clip-path="url(#p7806a97725)" style="fill: none; stroke-dasharray: 7.4,3.2; stroke-dashoffset: 0; stroke: #8c564b; stroke-width: 2"/>
   </g>
   <g id="patch_3">
    <path d="M 90 384.48 
L 90 51.84 
" style="fill: none; stroke: #000000; stroke-width: 0.8; stroke-linejoin: miter; stroke-linecap: square"/>
   </g>
   <g id="patch_4">
    <path d="M 648 384.48 
L 648 51.84 
" style="fill: none; stroke: #000000; stroke-width: 0.8; stroke-linejoin: miter; stroke-linecap: square"/>
   </g>
   <g id="patch_5">
    <path d="M 90 384.48 
L 648 384.48 
" style="fill: none; stroke: #000000; stroke-width: 0.8; stroke-linejoin: miter; stroke-linecap: square"/>
   </g>
   <g id="patch_6">
    <path d="M 90 51.84 
L 648 51.84 
" style="fill: none; stroke: #000000; stroke-width: 0.8; stroke-linejoin: miter; stroke-linecap: square"/>
   </g>
   <g id="legend_1">
    <g id="patch_7">
     <path d="M 357.265625 149.5775 
L 641 149.5775 
Q 643 149.5775 643 147.5775 
L 643 58.84 
Q 643 56.84 641 56.84 
L 357.265625 56.84 
Q 355.265625 56.84 355.265625 58.84 
L 355.265625 147.5775 
Q 355.265625 149.5775 357.265625 149.5775 
z
" style="fill: #ffffff; opacity: 0.8; stroke: #cccccc; stroke-linejoin: miter"/>
    </g>
    <g id="line2d_35">
     <path d="M 359.265625 64.938437 
L 369.265625 64.938437 
L 379.265625 64.938437 
" style="fill: none; stroke: #1f77b4; stroke-width: 2; stroke-linecap: square"/>
    </g>
    <g id="text_17">
     <!-- Class Hernia - degree_spondylolisthesis -->
     <g transform="translate(387.265625 68.438437) scale(0.1 -0.1)">
      <defs>
       <path id="DejaVuSans-43" d="M 4122 4306 
L 4122 3641 
Q 3803 3938 3442 4084 
Q 3081 4231 2675 4231 
Q 1875 4231 1450 3742 
Q 1025 3253 1025 2328 
Q 1025 1406 1450 917 
Q 1875 428 2675 428 
Q 3081 428 3442 575 
Q 3803 722 4122 1019 
L 4122 359 
Q 3791 134 3420 21 
Q 3050 -91 2638 -91 
Q 1578 -91 968 557 
Q 359 1206 359 2328 
Q 359 3453 968 4101 
Q 1578 4750 2638 4750 
Q 3056 4750 3426 4639 
Q 3797 4528 4122 4306 
z
" transform="scale(0.015625)"/>
       <path id="DejaVuSans-20" transform="scale(0.015625)"/>
       <path id="DejaVuSans-48" d="M 628 4666 
L 1259 4666 
L 1259 2753 
L 3553 2753 
L 3553 4666 
L 4184 4666 
L 4184 0 
L 3553 0 
L 3553 2222 
L 1259 2222 
L 1259 0 
L 628 0 
L 628 4666 
z
" transform="scale(0.015625)"/>
       <path id="DejaVuSans-72" d="M 2631 2963 
Q 2534 3019 2420 3045 
Q 2306 3072 2169 3072 
Q 1681 3072 1420 2755 
Q 1159 2438 1159 1844 
L 1159 0 
L 581 0 
L 581 3500 
L 1159 3500 
L 1159 2956 
Q 1341 3275 1631 3429 
Q 1922 3584 2338 3584 
Q 2397 3584 2469 3576 
Q 2541 3569 2628 3553 
L 2631 2963 
z
" transform="scale(0.015625)"/>
       <path id="DejaVuSans-2d" d="M 313 2009 
L 1997 2009 
L 1997 1497 
L 313 1497 
L 313 2009 
z
" transform="scale(0.015625)"/>
       <path id="DejaVuSans-64" d="M 2906 2969 
L 2906 4863 
L 3481 4863 
L 3481 0 
L 2906 0 
L 2906 525 
Q 2725 213 2448 61 
Q 2172 -91 1784 -91 
Q 1150 -91 751 415 
Q 353 922 353 1747 
Q 353 2572 751 3078 
Q 1150 3584 1784 3584 
Q 2172 3584 2448 3432 
Q 2725 3281 2906 2969 
z
M 947 1747 
Q 947 1113 1208 752 
Q 1469 391 1925 391 
Q 2381 391 2643 752 
Q 2906 1113 2906 1747 
Q 2906 2381 2643 2742 
Q 2381 3103 1925 3103 
Q 1469 3103 1208 2742 
Q 947 2381 947 1747 
z
" transform="scale(0.015625)"/>
       <path id="DejaVuSans-67" d="M 2906 1791 
Q 2906 2416 2648 2759 
Q 2391 3103 1925 3103 
Q 1463 3103 1205 2759 
Q 947 2416 947 1791 
Q 947 1169 1205 825 
Q 1463 481 1925 481 
Q 2391 481 2648 825 
Q 2906 1169 2906 1791 
z
M 3481 434 
Q 3481 -459 3084 -895 
Q 2688 -1331 1869 -1331 
Q 1566 -1331 1297 -1286 
Q 1028 -1241 775 -1147 
L 775 -588 
Q 1028 -725 1275 -790 
Q 1522 -856 1778 -856 
Q 2344 -856 2625 -561 
Q 2906 -266 2906 331 
L 2906 616 
Q 2728 306 2450 153 
Q 2172 0 1784 0 
Q 1141 0 747 490 
Q 353 981 353 1791 
Q 353 2603 747 3093 
Q 1141 3584 1784 3584 
Q 2172 3584 2450 3431 
Q 2728 3278 2906 2969 
L 2906 3500 
L 3481 3500 
L 3481 434 
z
" transform="scale(0.015625)"/>
       <path id="DejaVuSans-5f" d="M 3263 -1063 
L 3263 -1509 
L -63 -1509 
L -63 -1063 
L 3263 -1063 
z
" transform="scale(0.015625)"/>
       <path id="DejaVuSans-70" d="M 1159 525 
L 1159 -1331 
L 581 -1331 
L 581 3500 
L 1159 3500 
L 1159 2969 
Q 1341 3281 1617 3432 
Q 1894 3584 2278 3584 
Q 2916 3584 3314 3078 
Q 3713 2572 3713 1747 
Q 3713 922 3314 415 
Q 2916 -91 2278 -91 
Q 1894 -91 1617 61 
Q 1341 213 1159 525 
z
M 3116 1747 
Q 3116 2381 2855 2742 
Q 2594 3103 2138 3103 
Q 1681 3103 1420 2742 
Q 1159 2381 1159 1747 
Q 1159 1113 1420 752 
Q 1681 391 2138 391 
Q 2594 391 2855 752 
Q 3116 1113 3116 1747 
z
" transform="scale(0.015625)"/>
       <path id="DejaVuSans-6f" d="M 1959 3097 
Q 1497 3097 1228 2736 
Q 959 2375 959 1747 
Q 959 1119 1226 758 
Q 1494 397 1959 397 
Q 2419 397 2687 759 
Q 2956 1122 2956 1747 
Q 2956 2369 2687 2733 
Q 2419 3097 1959 3097 
z
M 1959 3584 
Q 2709 3584 3137 3096 
Q 3566 2609 3566 1747 
Q 3566 888 3137 398 
Q 2709 -91 1959 -91 
Q 1206 -91 779 398 
Q 353 888 353 1747 
Q 353 2609 779 3096 
Q 1206 3584 1959 3584 
z
" transform="scale(0.015625)"/>
       <path id="DejaVuSans-68" d="M 3513 2113 
L 3513 0 
L 2938 0 
L 2938 2094 
Q 2938 2591 2744 2837 
Q 2550 3084 2163 3084 
Q 1697 3084 1428 2787 
Q 1159 2491 1159 1978 
L 1159 0 
L 581 0 
L 581 4863 
L 1159 4863 
L 1159 2956 
Q 1366 3272 1645 3428 
Q 1925 3584 2291 3584 
Q 2894 3584 3203 3211 
Q 3513 2838 3513 2113 
z
" transform="scale(0.015625)"/>
      </defs>
      <use xlink:href="#DejaVuSans-43"/>
      <use xlink:href="#DejaVuSans-6c" x="69.824219"/>
      <use xlink:href="#DejaVuSans-61" x="97.607422"/>
      <use xlink:href="#DejaVuSans-73" x="158.886719"/>
      <use xlink:href="#DejaVuSans-73" x="210.986328"/>
      <use xlink:href="#DejaVuSans-20" x="263.085938"/>
      <use xlink:href="#DejaVuSans-48" x="294.873047"/>
      <use xlink:href="#DejaVuSans-65" x="370.068359"/>
      <use xlink:href="#DejaVuSans-72" x="431.591797"/>
      <use xlink:href="#DejaVuSans-6e" x="470.955078"/>
      <use xlink:href="#DejaVuSans-69" x="534.333984"/>
      <use xlink:href="#DejaVuSans-61" x="562.117188"/>
      <use xlink:href="#DejaVuSans-20" x="623.396484"/>
      <use xlink:href="#DejaVuSans-2d" x="655.183594"/>
      <use xlink:href="#DejaVuSans-20" x="691.267578"/>
      <use xlink:href="#DejaVuSans-64" x="723.054688"/>
      <use xlink:href="#DejaVuSans-65" x="786.53125"/>
      <use xlink:href="#DejaVuSans-67" x="848.054688"/>
      <use xlink:href="#DejaVuSans-72" x="911.53125"/>
      <use xlink:href="#DejaVuSans-65" x="950.394531"/>
      <use xlink:href="#DejaVuSans-65" x="1011.917969"/>
      <use xlink:href="#DejaVuSans-5f" x="1073.441406"/>
      <use xlink:href="#DejaVuSans-73" x="1123.441406"/>
      <use xlink:href="#DejaVuSans-70" x="1175.541016"/>
      <use xlink:href="#DejaVuSans-6f" x="1239.017578"/>
      <use xlink:href="#DejaVuSans-6e" x="1300.199219"/>
      <use xlink:href="#DejaVuSans-64" x="1363.578125"/>
      <use xlink:href="#DejaVuSans-79" x="1427.054688"/>
      <use xlink:href="#DejaVuSans-6c" x="1486.234375"/>
      <use xlink:href="#DejaVuSans-6f" x="1514.017578"/>
      <use xlink:href="#DejaVuSans-6c" x="1575.199219"/>
      <use xlink:href="#DejaVuSans-69" x="1602.982422"/>
      <use xlink:href="#DejaVuSans-73" x="1630.765625"/>
      <use xlink:href="#DejaVuSans-74" x="1682.865234"/>
      <use xlink:href="#DejaVuSans-68" x="1722.074219"/>
      <use xlink:href="#DejaVuSans-65" x="1785.453125"/>
      <use xlink:href="#DejaVuSans-73" x="1846.976562"/>
      <use xlink:href="#DejaVuSans-69" x="1899.076172"/>
      <use xlink:href="#DejaVuSans-73" x="1926.859375"/>
     </g>
    </g>
    <g id="line2d_36">
     <path d="M 359.265625 79.894687 
L 369.265625 79.894687 
L 379.265625 79.894687 
" style="fill: none; stroke: #ff7f0e; stroke-width: 2; stroke-linecap: square"/>
    </g>
    <g id="text_18">
     <!-- Class Normal - degree_spondylolisthesis -->
     <g transform="translate(387.265625 83.394687) scale(0.1 -0.1)">
      <defs>
       <path id="DejaVuSans-4e" d="M 628 4666 
L 1478 4666 
L 3547 763 
L 3547 4666 
L 4159 4666 
L 4159 0 
L 3309 0 
L 1241 3903 
L 1241 0 
L 628 0 
L 628 4666 
z
" transform="scale(0.015625)"/>
       <path id="DejaVuSans-6d" d="M 3328 2828 
Q 3544 3216 3844 3400 
Q 4144 3584 4550 3584 
Q 5097 3584 5394 3201 
Q 5691 2819 5691 2113 
L 5691 0 
L 5113 0 
L 5113 2094 
Q 5113 2597 4934 2840 
Q 4756 3084 4391 3084 
Q 3944 3084 3684 2787 
Q 3425 2491 3425 1978 
L 3425 0 
L 2847 0 
L 2847 2094 
Q 2847 2600 2669 2842 
Q 2491 3084 2119 3084 
Q 1678 3084 1418 2786 
Q 1159 2488 1159 1978 
L 1159 0 
L 581 0 
L 581 3500 
L 1159 3500 
L 1159 2956 
Q 1356 3278 1631 3431 
Q 1906 3584 2284 3584 
Q 2666 3584 2933 3390 
Q 3200 3197 3328 2828 
z
" transform="scale(0.015625)"/>
      </defs>
      <use xlink:href="#DejaVuSans-43"/>
      <use xlink:href="#DejaVuSans-6c" x="69.824219"/>
      <use xlink:href="#DejaVuSans-61" x="97.607422"/>
      <use xlink:href="#DejaVuSans-73" x="158.886719"/>
      <use xlink:href="#DejaVuSans-73" x="210.986328"/>
      <use xlink:href="#DejaVuSans-20" x="263.085938"/>
      <use xlink:href="#DejaVuSans-4e" x="294.873047"/>
      <use xlink:href="#DejaVuSans-6f" x="369.677734"/>
      <use xlink:href="#DejaVuSans-72" x="430.859375"/>
      <use xlink:href="#DejaVuSans-6d" x="470.222656"/>
      <use xlink:href="#DejaVuSans-61" x="567.634766"/>
      <use xlink:href="#DejaVuSans-6c" x="628.914062"/>
      <use xlink:href="#DejaVuSans-20" x="656.697266"/>
      <use xlink:href="#DejaVuSans-2d" x="688.484375"/>
      <use xlink:href="#DejaVuSans-20" x="724.568359"/>
      <use xlink:href="#DejaVuSans-64" x="756.355469"/>
      <use xlink:href="#DejaVuSans-65" x="819.832031"/>
      <use xlink:href="#DejaVuSans-67" x="881.355469"/>
      <use xlink:href="#DejaVuSans-72" x="944.832031"/>
      <use xlink:href="#DejaVuSans-65" x="983.695312"/>
      <use xlink:href="#DejaVuSans-65" x="1045.21875"/>
      <use xlink:href="#DejaVuSans-5f" x="1106.742188"/>
      <use xlink:href="#DejaVuSans-73" x="1156.742188"/>
      <use xlink:href="#DejaVuSans-70" x="1208.841797"/>
      <use xlink:href="#DejaVuSans-6f" x="1272.318359"/>
      <use xlink:href="#DejaVuSans-6e" x="1333.5"/>
      <use xlink:href="#DejaVuSans-64" x="1396.878906"/>
      <use xlink:href="#DejaVuSans-79" x="1460.355469"/>
      <use xlink:href="#DejaVuSans-6c" x="1519.535156"/>
      <use xlink:href="#DejaVuSans-6f" x="1547.318359"/>
      <use xlink:href="#DejaVuSans-6c" x="1608.5"/>
      <use xlink:href="#DejaVuSans-69" x="1636.283203"/>
      <use xlink:href="#DejaVuSans-73" x="1664.066406"/>
      <use xlink:href="#DejaVuSans-74" x="1716.166016"/>
      <use xlink:href="#DejaVuSans-68" x="1755.375"/>
      <use xlink:href="#DejaVuSans-65" x="1818.753906"/>
      <use xlink:href="#DejaVuSans-73" x="1880.277344"/>
      <use xlink:href="#DejaVuSans-69" x="1932.376953"/>
      <use xlink:href="#DejaVuSans-73" x="1960.160156"/>
     </g>
    </g>
    <g id="line2d_37">
     <path d="M 359.265625 94.850937 
L 369.265625 94.850937 
L 379.265625 94.850937 
" style="fill: none; stroke: #2ca02c; stroke-width: 2; stroke-linecap: square"/>
    </g>
    <g id="text_19">
     <!-- Class Spondylolisthesis - degree_spondylolisthesis -->
     <g transform="translate(387.265625 98.350937) scale(0.1 -0.1)">
      <defs>
       <path id="DejaVuSans-53" d="M 3425 4513 
L 3425 3897 
Q 3066 4069 2747 4153 
Q 2428 4238 2131 4238 
Q 1616 4238 1336 4038 
Q 1056 3838 1056 3469 
Q 1056 3159 1242 3001 
Q 1428 2844 1947 2747 
L 2328 2669 
Q 3034 2534 3370 2195 
Q 3706 1856 3706 1288 
Q 3706 609 3251 259 
Q 2797 -91 1919 -91 
Q 1588 -91 1214 -16 
Q 841 59 441 206 
L 441 856 
Q 825 641 1194 531 
Q 1563 422 1919 422 
Q 2459 422 2753 634 
Q 3047 847 3047 1241 
Q 3047 1584 2836 1778 
Q 2625 1972 2144 2069 
L 1759 2144 
Q 1053 2284 737 2584 
Q 422 2884 422 3419 
Q 422 4038 858 4394 
Q 1294 4750 2059 4750 
Q 2388 4750 2728 4690 
Q 3069 4631 3425 4513 
z
" transform="scale(0.015625)"/>
      </defs>
      <use xlink:href="#DejaVuSans-43"/>
      <use xlink:href="#DejaVuSans-6c" x="69.824219"/>
      <use xlink:href="#DejaVuSans-61" x="97.607422"/>
      <use xlink:href="#DejaVuSans-73" x="158.886719"/>
      <use xlink:href="#DejaVuSans-73" x="210.986328"/>
      <use xlink:href="#DejaVuSans-20" x="263.085938"/>
      <use xlink:href="#DejaVuSans-53" x="294.873047"/>
      <use xlink:href="#DejaVuSans-70" x="358.349609"/>
      <use xlink:href="#DejaVuSans-6f" x="421.826172"/>
      <use xlink:href="#DejaVuSans-6e" x="483.007812"/>
      <use xlink:href="#DejaVuSans-64" x="546.386719"/>
      <use xlink:href="#DejaVuSans-79" x="609.863281"/>
      <use xlink:href="#DejaVuSans-6c" x="669.042969"/>
      <use xlink:href="#DejaVuSans-6f" x="696.826172"/>
      <use xlink:href="#DejaVuSans-6c" x="758.007812"/>
      <use xlink:href="#DejaVuSans-69" x="785.791016"/>
      <use xlink:href="#DejaVuSans-73" x="813.574219"/>
      <use xlink:href="#DejaVuSans-74" x="865.673828"/>
      <use xlink:href="#DejaVuSans-68" x="904.882812"/>
      <use xlink:href="#DejaVuSans-65" x="968.261719"/>
      <use xlink:href="#DejaVuSans-73" x="1029.785156"/>
      <use xlink:href="#DejaVuSans-69" x="1081.884766"/>
      <use xlink:href="#DejaVuSans-73" x="1109.667969"/>
      <use xlink:href="#DejaVuSans-20" x="1161.767578"/>
      <use xlink:href="#DejaVuSans-2d" x="1193.554688"/>
      <use xlink:href="#DejaVuSans-20" x="1229.638672"/>
      <use xlink:href="#DejaVuSans-64" x="1261.425781"/>
      <use xlink:href="#DejaVuSans-65" x="1324.902344"/>
      <use xlink:href="#DejaVuSans-67" x="1386.425781"/>
      <use xlink:href="#DejaVuSans-72" x="1449.902344"/>
      <use xlink:href="#DejaVuSans-65" x="1488.765625"/>
      <use xlink:href="#DejaVuSans-65" x="1550.289062"/>
      <use xlink:href="#DejaVuSans-5f" x="1611.8125"/>
      <use xlink:href="#DejaVuSans-73" x="1661.8125"/>
      <use xlink:href="#DejaVuSans-70" x="1713.912109"/>
      <use xlink:href="#DejaVuSans-6f" x="1777.388672"/>
      <use xlink:href="#DejaVuSans-6e" x="1838.570312"/>
      <use xlink:href="#DejaVuSans-64" x="1901.949219"/>
      <use xlink:href="#DejaVuSans-79" x="1965.425781"/>
      <use xlink:href="#DejaVuSans-6c" x="2024.605469"/>
      <use xlink:href="#DejaVuSans-6f" x="2052.388672"/>
      <use xlink:href="#DejaVuSans-6c" x="2113.570312"/>
      <use xlink:href="#DejaVuSans-69" x="2141.353516"/>
      <use xlink:href="#DejaVuSans-73" x="2169.136719"/>
      <use xlink:href="#DejaVuSans-74" x="2221.236328"/>
      <use xlink:href="#DejaVuSans-68" x="2260.445312"/>
      <use xlink:href="#DejaVuSans-65" x="2323.824219"/>
      <use xlink:href="#DejaVuSans-73" x="2385.347656"/>
      <use xlink:href="#DejaVuSans-69" x="2437.447266"/>
      <use xlink:href="#DejaVuSans-73" x="2465.230469"/>
     </g>
    </g>
    <g id="line2d_38">
     <path d="M 359.265625 109.807187 
L 369.265625 109.807187 
L 379.265625 109.807187 
" style="fill: none; stroke-dasharray: 7.4,3.2; stroke-dashoffset: 0; stroke: #d62728; stroke-width: 2"/>
    </g>
    <g id="text_20">
     <!-- Class Hernia - pelvic_radius -->
     <g transform="translate(387.265625 113.307187) scale(0.1 -0.1)">
      <defs>
       <path id="DejaVuSans-76" d="M 191 3500 
L 800 3500 
L 1894 563 
L 2988 3500 
L 3597 3500 
L 2284 0 
L 1503 0 
L 191 3500 
z
" transform="scale(0.015625)"/>
       <path id="DejaVuSans-63" d="M 3122 3366 
L 3122 2828 
Q 2878 2963 2633 3030 
Q 2388 3097 2138 3097 
Q 1578 3097 1268 2742 
Q 959 2388 959 1747 
Q 959 1106 1268 751 
Q 1578 397 2138 397 
Q 2388 397 2633 464 
Q 2878 531 3122 666 
L 3122 134 
Q 2881 22 2623 -34 
Q 2366 -91 2075 -91 
Q 1284 -91 818 406 
Q 353 903 353 1747 
Q 353 2603 823 3093 
Q 1294 3584 2113 3584 
Q 2378 3584 2631 3529 
Q 2884 3475 3122 3366 
z
" transform="scale(0.015625)"/>
      </defs>
      <use xlink:href="#DejaVuSans-43"/>
      <use xlink:href="#DejaVuSans-6c" x="69.824219"/>
      <use xlink:href="#DejaVuSans-61" x="97.607422"/>
      <use xlink:href="#DejaVuSans-73" x="158.886719"/>
      <use xlink:href="#DejaVuSans-73" x="210.986328"/>
      <use xlink:href="#DejaVuSans-20" x="263.085938"/>
      <use xlink:href="#DejaVuSans-48" x="294.873047"/>
      <use xlink:href="#DejaVuSans-65" x="370.068359"/>
      <use xlink:href="#DejaVuSans-72" x="431.591797"/>
      <use xlink:href="#DejaVuSans-6e" x="470.955078"/>
      <use xlink:href="#DejaVuSans-69" x="534.333984"/>
      <use xlink:href="#DejaVuSans-61" x="562.117188"/>
      <use xlink:href="#DejaVuSans-20" x="623.396484"/>
      <use xlink:href="#DejaVuSans-2d" x="655.183594"/>
      <use xlink:href="#DejaVuSans-20" x="691.267578"/>
      <use xlink:href="#DejaVuSans-70" x="723.054688"/>
      <use xlink:href="#DejaVuSans-65" x="786.53125"/>
      <use xlink:href="#DejaVuSans-6c" x="848.054688"/>
      <use xlink:href="#DejaVuSans-76" x="875.837891"/>
      <use xlink:href="#DejaVuSans-69" x="935.017578"/>
      <use xlink:href="#DejaVuSans-63" x="962.800781"/>
      <use xlink:href="#DejaVuSans-5f" x="1017.78125"/>
      <use xlink:href="#DejaVuSans-72" x="1067.78125"/>
      <use xlink:href="#DejaVuSans-61" x="1108.894531"/>
      <use xlink:href="#DejaVuSans-64" x="1170.173828"/>
      <use xlink:href="#DejaVuSans-69" x="1233.650391"/>
      <use xlink:href="#DejaVuSans-75" x="1261.433594"/>
      <use xlink:href="#DejaVuSans-73" x="1324.8125"/>
     </g>
    </g>
    <g id="line2d_39">
     <path d="M 359.265625 124.763437 
L 369.265625 124.763437 
L 379.265625 124.763437 
" style="fill: none; stroke-dasharray: 7.4,3.2; stroke-dashoffset: 0; stroke: #9467bd; stroke-width: 2"/>
    </g>
    <g id="text_21">
     <!-- Class Normal - pelvic_radius -->
     <g transform="translate(387.265625 128.263437) scale(0.1 -0.1)">
      <use xlink:href="#DejaVuSans-43"/>
      <use xlink:href="#DejaVuSans-6c" x="69.824219"/>
      <use xlink:href="#DejaVuSans-61" x="97.607422"/>
      <use xlink:href="#DejaVuSans-73" x="158.886719"/>
      <use xlink:href="#DejaVuSans-73" x="210.986328"/>
      <use xlink:href="#DejaVuSans-20" x="263.085938"/>
      <use xlink:href="#DejaVuSans-4e" x="294.873047"/>
      <use xlink:href="#DejaVuSans-6f" x="369.677734"/>
      <use xlink:href="#DejaVuSans-72" x="430.859375"/>
      <use xlink:href="#DejaVuSans-6d" x="470.222656"/>
      <use xlink:href="#DejaVuSans-61" x="567.634766"/>
      <use xlink:href="#DejaVuSans-6c" x="628.914062"/>
      <use xlink:href="#DejaVuSans-20" x="656.697266"/>
      <use xlink:href="#DejaVuSans-2d" x="688.484375"/>
      <use xlink:href="#DejaVuSans-20" x="724.568359"/>
      <use xlink:href="#DejaVuSans-70" x="756.355469"/>
      <use xlink:href="#DejaVuSans-65" x="819.832031"/>
      <use xlink:href="#DejaVuSans-6c" x="881.355469"/>
      <use xlink:href="#DejaVuSans-76" x="909.138672"/>
      <use xlink:href="#DejaVuSans-69" x="968.318359"/>
      <use xlink:href="#DejaVuSans-63" x="996.101562"/>
      <use xlink:href="#DejaVuSans-5f" x="1051.082031"/>
      <use xlink:href="#DejaVuSans-72" x="1101.082031"/>
      <use xlink:href="#DejaVuSans-61" x="1142.195312"/>
      <use xlink:href="#DejaVuSans-64" x="1203.474609"/>
      <use xlink:href="#DejaVuSans-69" x="1266.951172"/>
      <use xlink:href="#DejaVuSans-75" x="1294.734375"/>
      <use xlink:href="#DejaVuSans-73" x="1358.113281"/>
     </g>
    </g>
    <g id="line2d_40">
     <path d="M 359.265625 139.719687 
L 369.265625 139.719687 
L 379.265625 139.719687 
" style="fill: none; stroke-dasharray: 7.4,3.2; stroke-dashoffset: 0; stroke: #8c564b; stroke-width: 2"/>
    </g>
    <g id="text_22">
     <!-- Class Spondylolisthesis - pelvic_radius -->
     <g transform="translate(387.265625 143.219687) scale(0.1 -0.1)">
      <use xlink:href="#DejaVuSans-43"/>
      <use xlink:href="#DejaVuSans-6c" x="69.824219"/>
      <use xlink:href="#DejaVuSans-61" x="97.607422"/>
      <use xlink:href="#DejaVuSans-73" x="158.886719"/>
      <use xlink:href="#DejaVuSans-73" x="210.986328"/>
      <use xlink:href="#DejaVuSans-20" x="263.085938"/>
      <use xlink:href="#DejaVuSans-53" x="294.873047"/>
      <use xlink:href="#DejaVuSans-70" x="358.349609"/>
      <use xlink:href="#DejaVuSans-6f" x="421.826172"/>
      <use xlink:href="#DejaVuSans-6e" x="483.007812"/>
      <use xlink:href="#DejaVuSans-64" x="546.386719"/>
      <use xlink:href="#DejaVuSans-79" x="609.863281"/>
      <use xlink:href="#DejaVuSans-6c" x="669.042969"/>
      <use xlink:href="#DejaVuSans-6f" x="696.826172"/>
      <use xlink:href="#DejaVuSans-6c" x="758.007812"/>
      <use xlink:href="#DejaVuSans-69" x="785.791016"/>
      <use xlink:href="#DejaVuSans-73" x="813.574219"/>
      <use xlink:href="#DejaVuSans-74" x="865.673828"/>
      <use xlink:href="#DejaVuSans-68" x="904.882812"/>
      <use xlink:href="#DejaVuSans-65" x="968.261719"/>
      <use xlink:href="#DejaVuSans-73" x="1029.785156"/>
      <use xlink:href="#DejaVuSans-69" x="1081.884766"/>
      <use xlink:href="#DejaVuSans-73" x="1109.667969"/>
      <use xlink:href="#DejaVuSans-20" x="1161.767578"/>
      <use xlink:href="#DejaVuSans-2d" x="1193.554688"/>
      <use xlink:href="#DejaVuSans-20" x="1229.638672"/>
      <use xlink:href="#DejaVuSans-70" x="1261.425781"/>
      <use xlink:href="#DejaVuSans-65" x="1324.902344"/>
      <use xlink:href="#DejaVuSans-6c" x="1386.425781"/>
      <use xlink:href="#DejaVuSans-76" x="1414.208984"/>
      <use xlink:href="#DejaVuSans-69" x="1473.388672"/>
      <use xlink:href="#DejaVuSans-63" x="1501.171875"/>
      <use xlink:href="#DejaVuSans-5f" x="1556.152344"/>
      <use xlink:href="#DejaVuSans-72" x="1606.152344"/>
      <use xlink:href="#DejaVuSans-61" x="1647.265625"/>
      <use xlink:href="#DejaVuSans-64" x="1708.544922"/>
      <use xlink:href="#DejaVuSans-69" x="1772.021484"/>
      <use xlink:href="#DejaVuSans-75" x="1799.804688"/>
      <use xlink:href="#DejaVuSans-73" x="1863.183594"/>
     </g>
    </g>
   </g>
  </g>
 </g>
 <defs>
  <clipPath id="p7806a97725">
   <rect x="90" y="51.84" width="558" height="332.64"/>
  </clipPath>
 </defs>
</svg>
